<svg viewBox="0 0 65 75" fill="none" xmlns="http://www.w3.org/2000/svg">
<path d="M38.125 0.8125C43.6667 0.8125 48.4167 1.79167 52.375 3.75C56.3333 5.70833 59.3333 8.47917 61.375 12.0625C63.4583 15.6458 64.5 19.7917 64.5 24.5C64.5 29.2083 63.4583 33.3333 61.375 36.875C59.3333 40.375 56.3333 43.1042 52.375 45.0625C48.4167 46.9792 43.6667 47.9375 38.125 47.9375H23.4375V66.5H38.4375C39.8542 66.5 40.8542 66.8333 41.4375 67.5C42.0625 68.125 42.375 69.2083 42.375 70.75C42.375 72.2917 42.0625 73.3958 41.4375 74.0625C40.8542 74.6875 39.8542 75 38.4375 75H3.9375C2.52083 75 1.5 74.6875 0.875 74.0625C0.291667 73.3958 0 72.2917 0 70.75C0 69.2083 0.291667 68.125 0.875 67.5C1.5 66.8333 2.52083 66.5 3.9375 66.5H14.0625V9.3125H3.9375C2.52083 9.3125 1.5 9 0.875 8.375C0.291667 7.70833 0 6.60417 0 5.0625C0 3.52083 0.291667 2.4375 0.875 1.8125C1.5 1.14583 2.52083 0.8125 3.9375 0.8125H38.125ZM23.4375 39.4375H36.8125C42.6042 39.4375 47.0208 38.125 50.0625 35.5C53.1042 32.875 54.625 29.2083 54.625 24.5C54.625 19.7083 53.0833 15.9792 50 13.3125C46.9583 10.6458 42.5625 9.3125 36.8125 9.3125H23.4375V39.4375Z" fill="#9AE19D"/>
</svg>
